<svg width="2500" height="1000" viewBox="0 0 2500 1000" fill="none" xmlns="http://www.w3.org/2000/svg">
<rect width="2500" height="1000" fill="white"/>
<path d="M571.043 785L652.707 591.72H654.243L735.907 785H704.931L645.539 633.704L664.739 621.16L597.667 785H571.043ZM620.451 715.368H687.011L696.227 738.408H612.515L620.451 715.368ZM763.349 785V586.088H788.693V702.312L788.181 697.96C791.936 690.963 797.482 685.245 804.821 680.808C812.16 676.2 820.949 673.896 831.189 673.896C841.258 673.896 849.536 676.883 856.021 682.856C862.506 688.659 865.834 696.339 866.005 705.896V785H840.149V714.856C839.978 709.395 838.357 704.957 835.285 701.544C832.213 697.96 827.434 696.083 820.949 695.912C811.904 695.912 804.309 699.752 798.165 707.432C792.192 714.941 789.205 724.499 789.205 736.104V785H763.349ZM906.599 586.088H932.455V785H906.599V586.088ZM1007.15 789.352C997.254 789.352 989.148 786.365 982.833 780.392C976.518 774.419 973.19 766.739 972.849 757.352V677.992H998.705V748.136C999.046 753.768 1000.67 758.291 1003.57 761.704C1006.47 765.117 1011.08 766.995 1017.39 767.336C1023.2 767.336 1028.4 765.629 1033.01 762.216C1037.62 758.632 1041.2 753.768 1043.76 747.624C1046.49 741.48 1047.86 734.568 1047.86 726.888V677.992H1073.71V785H1050.42L1048.37 759.912L1049.39 764.008C1046.15 771.347 1040.69 777.405 1033.01 782.184C1025.5 786.963 1016.88 789.352 1007.15 789.352ZM1114.35 586.088H1140.21V785H1114.35V586.088ZM1246.9 787.56C1237 787.56 1228.47 785.597 1221.3 781.672C1214.14 777.576 1208.33 772.371 1203.9 766.056L1206.46 758.632V785H1180.6V586.088H1206.46V701.544L1205.69 692.072C1209.95 686.611 1215.93 682.173 1223.61 678.76C1231.46 675.347 1240.33 673.64 1250.23 673.64C1259.79 673.64 1268.49 675.944 1276.34 680.552C1284.19 684.989 1290.51 691.389 1295.29 699.752C1300.07 708.115 1302.46 718.099 1302.46 729.704C1302.46 741.821 1299.81 752.232 1294.52 760.936C1289.4 769.469 1282.66 776.04 1274.3 780.648C1265.93 785.256 1256.8 787.56 1246.9 787.56ZM1241.27 765.8C1247.93 765.8 1253.9 764.264 1259.19 761.192C1264.48 757.949 1268.58 753.597 1271.48 748.136C1274.55 742.675 1276.09 736.531 1276.09 729.704C1276.09 722.877 1274.55 716.819 1271.48 711.528C1268.41 706.237 1264.23 702.056 1258.94 698.984C1253.82 695.741 1247.93 694.12 1241.27 694.12C1232.74 694.12 1225.31 696.339 1219 700.776C1212.68 705.213 1208.5 711.101 1206.46 718.44V740.968C1208.67 748.136 1212.77 754.109 1218.74 758.888C1224.89 763.496 1232.4 765.8 1241.27 765.8ZM1378.4 787.56C1368.33 787.56 1359.2 785.427 1351.01 781.16C1342.82 776.893 1336.33 770.664 1331.55 762.472C1326.77 754.109 1324.38 743.784 1324.38 731.496C1324.38 719.549 1326.86 709.309 1331.81 700.776C1336.93 692.072 1343.58 685.416 1351.78 680.808C1360.14 676.029 1369.18 673.64 1378.91 673.64C1389.15 673.64 1397.6 675.773 1404.26 680.04C1410.91 684.307 1416.03 689.427 1419.62 695.4L1418.08 699.496L1420.64 677.992H1444.45V785H1418.59V757.864L1421.15 764.264C1420.47 765.629 1419.02 767.592 1416.8 770.152C1414.58 772.712 1411.68 775.357 1408.1 778.088C1404.51 780.648 1400.16 782.867 1395.04 784.744C1390.09 786.621 1384.54 787.56 1378.4 787.56ZM1385.31 766.312C1393.84 766.312 1401.01 764.093 1406.82 759.656C1412.79 755.048 1416.71 748.819 1418.59 740.968V718.952C1416.54 711.955 1412.36 706.152 1406.05 701.544C1399.9 696.936 1392.74 694.632 1384.54 694.632C1378.4 694.632 1372.77 696.168 1367.65 699.24C1362.53 702.141 1358.43 706.323 1355.36 711.784C1352.29 717.075 1350.75 723.219 1350.75 730.216C1350.75 737.043 1352.29 743.187 1355.36 748.648C1358.6 754.109 1362.87 758.461 1368.16 761.704C1373.45 764.776 1379.17 766.312 1385.31 766.312ZM1494.07 836.456L1564.47 677.992H1588.27L1519.15 836.456H1494.07ZM1520.69 785.768L1469.23 677.992H1498.16L1540.91 772.712L1520.69 785.768ZM1623.09 631.144H1649.2V678.248H1677.87V698.472H1649.2V785H1623.09V698.472H1604.15V678.248H1623.09V631.144ZM1694.06 770.664C1694.06 766.568 1695.51 763.155 1698.41 760.424C1701.48 757.523 1704.81 756.072 1708.4 756.072C1711.81 756.072 1714.97 757.523 1717.87 760.424C1720.77 763.155 1722.22 766.568 1722.22 770.664C1722.22 774.931 1720.77 778.429 1717.87 781.16C1714.97 783.72 1711.81 785 1708.4 785C1704.81 785 1701.48 783.72 1698.41 781.16C1695.51 778.429 1694.06 774.931 1694.06 770.664ZM1749.6 677.992H1775.46V785H1749.6V677.992ZM1748.32 639.592C1748.32 635.667 1749.86 632.339 1752.93 629.608C1756.17 626.877 1759.67 625.512 1763.42 625.512C1767.18 625.512 1770.59 626.877 1773.66 629.608C1776.74 632.339 1778.27 635.667 1778.27 639.592C1778.27 643.859 1776.74 647.272 1773.66 649.832C1770.59 652.392 1767.18 653.672 1763.42 653.672C1759.67 653.672 1756.17 652.392 1752.93 649.832C1749.86 647.272 1748.32 643.859 1748.32 639.592ZM1806.63 730.472C1806.63 719.72 1809.19 710.077 1814.31 701.544C1819.43 692.84 1826.52 686.013 1835.56 681.064C1844.61 676.115 1854.93 673.64 1866.54 673.64C1878.31 673.64 1888.55 676.115 1897.26 681.064C1906.13 686.013 1912.96 692.84 1917.74 701.544C1922.69 710.077 1925.16 719.72 1925.16 730.472C1925.16 741.224 1922.69 750.952 1917.74 759.656C1912.79 768.189 1905.88 775.016 1897 780.136C1888.3 785.085 1877.97 787.56 1866.03 787.56C1854.76 787.56 1844.61 785.256 1835.56 780.648C1826.69 776.04 1819.6 769.469 1814.31 760.936C1809.19 752.232 1806.63 742.077 1806.63 730.472ZM1832.75 730.728C1832.75 737.384 1834.2 743.443 1837.1 748.904C1840 754.195 1843.92 758.461 1848.87 761.704C1853.99 764.776 1859.63 766.312 1865.77 766.312C1875.5 766.312 1883.43 762.899 1889.58 756.072C1895.89 749.245 1899.05 740.797 1899.05 730.728C1899.05 720.659 1895.89 712.211 1889.58 705.384C1883.43 698.387 1875.5 694.888 1865.77 694.888C1859.45 694.888 1853.82 696.509 1848.87 699.752C1843.92 702.995 1840 707.347 1837.1 712.808C1834.2 718.269 1832.75 724.243 1832.75 730.728Z" fill="#4E6E81"/>
<path d="M1084.19 466.424C1082.15 466.424 1080.4 465.699 1078.95 464.248C1077.49 462.797 1076.77 461.048 1076.77 459C1076.77 456.952 1077.49 455.203 1078.95 453.752C1080.4 452.301 1082.15 451.576 1084.19 451.576C1086.24 451.576 1087.99 452.301 1089.44 453.752C1090.89 455.203 1091.62 456.952 1091.62 459C1091.62 461.048 1090.89 462.797 1089.44 464.248C1087.99 465.699 1086.24 466.424 1084.19 466.424ZM1062.05 466.424C1060 466.424 1058.25 465.699 1056.8 464.248C1055.35 462.797 1054.62 461.048 1054.62 459C1054.62 456.952 1055.35 455.203 1056.8 453.752C1058.25 452.301 1060 451.576 1062.05 451.576C1064.1 451.576 1065.85 452.301 1067.3 453.752C1068.75 455.203 1069.47 456.952 1069.47 459C1069.47 461.048 1068.75 462.797 1067.3 464.248C1065.85 465.699 1064.1 466.424 1062.05 466.424ZM1113.55 509V496.2H1141.71V509H1113.55ZM1023.95 509L1031.63 496.2H1113.55V509H1023.95ZM1098.19 509V496.2H1113.55V473.416L1126.35 470.6V506.056C1126.35 507.08 1125.92 507.805 1125.07 508.232C1124.22 508.659 1123.36 508.915 1122.51 509C1121.66 509 1121.23 509 1121.23 509H1098.19ZM1136.56 509V496.2H1180.09V509H1136.56ZM1188.17 428.528C1184.76 428.528 1181.81 427.291 1179.34 424.816C1176.86 422.256 1175.62 419.227 1175.62 415.728C1175.62 412.229 1176.86 409.243 1179.34 406.768C1181.81 404.208 1184.76 402.928 1188.17 402.928C1191.67 402.928 1194.65 404.208 1197.13 406.768C1199.69 409.243 1200.97 412.229 1200.97 415.728C1200.97 419.227 1199.69 422.256 1197.13 424.816C1194.65 427.291 1191.67 428.528 1188.17 428.528ZM1188.3 424.048C1190.69 424.048 1192.69 423.237 1194.31 421.616C1195.93 419.995 1196.75 417.989 1196.75 415.6C1196.75 413.211 1195.93 411.205 1194.31 409.584C1192.78 407.963 1190.77 407.109 1188.3 407.024C1185.91 406.939 1183.9 407.749 1182.28 409.456C1180.66 411.163 1179.85 413.211 1179.85 415.6C1179.85 417.989 1180.66 419.995 1182.28 421.616C1183.9 423.237 1185.91 424.048 1188.3 424.048ZM1199.19 535.424C1197.15 535.424 1195.4 534.699 1193.95 533.248C1192.49 531.797 1191.77 530.048 1191.77 528C1191.77 525.952 1192.49 524.203 1193.95 522.752C1195.4 521.301 1197.15 520.576 1199.19 520.576C1201.24 520.576 1202.99 521.301 1204.44 522.752C1205.89 524.203 1206.62 525.952 1206.62 528C1206.62 530.048 1205.89 531.797 1204.44 533.248C1202.99 534.699 1201.24 535.424 1199.19 535.424ZM1177.05 535.424C1175 535.424 1173.25 534.699 1171.8 533.248C1170.35 531.797 1169.62 530.048 1169.62 528C1169.62 525.952 1170.35 524.203 1171.8 522.752C1173.25 521.301 1175 520.576 1177.05 520.576C1179.1 520.576 1180.85 521.301 1182.3 522.752C1183.75 524.203 1184.47 525.952 1184.47 528C1184.47 530.048 1183.75 531.797 1182.3 533.248C1180.85 534.699 1179.1 535.424 1177.05 535.424ZM1190.3 509V496.2H1218.46V509H1190.3ZM1174.94 509V496.2H1190.3V473.416L1203.1 470.6V506.056C1203.1 507.08 1202.67 507.805 1201.82 508.232C1200.97 508.659 1200.11 508.915 1199.26 509C1198.41 509 1197.98 509 1197.98 509H1174.94ZM1213.18 429.808L1211 425.968L1239.8 409.328L1241.98 413.168L1213.18 429.808ZM1226.55 535.424C1224.5 535.424 1222.75 534.699 1221.3 533.248C1219.85 531.797 1219.12 530.048 1219.12 528C1219.12 525.952 1219.85 524.203 1221.3 522.752C1222.75 521.301 1224.5 520.576 1226.55 520.576C1228.6 520.576 1230.35 521.301 1231.8 522.752C1233.25 524.203 1233.97 525.952 1233.97 528C1233.97 530.048 1233.25 531.797 1231.8 533.248C1230.35 534.699 1228.6 535.424 1226.55 535.424ZM1228.68 509V496.2H1256.84V509H1228.68ZM1213.31 509V496.2H1228.68V473.416L1241.48 470.6V506.056C1241.48 507.08 1241.05 507.805 1240.2 508.232C1239.34 508.659 1238.49 508.915 1237.64 509C1236.78 509 1236.36 509 1236.36 509H1213.31ZM1251.69 509V496.2H1267.05V409.416L1279.85 406.6V506.056C1279.85 507.08 1279.42 507.805 1278.57 508.232C1277.72 508.659 1276.86 508.915 1276.01 509C1275.16 509 1274.73 509 1274.73 509H1251.69ZM1282.26 400V393.6H1306.33C1306.33 392.149 1306.11 390.955 1305.69 390.016C1305.35 388.992 1304.19 388.48 1302.23 388.48H1282.26V382.08H1303C1305.64 382.08 1307.65 382.677 1309.02 383.872C1310.38 384.981 1311.32 386.389 1311.83 388.096C1312.34 389.803 1312.6 391.637 1312.6 393.6C1312.68 395.477 1312.73 397.184 1312.73 398.72C1312.73 399.317 1312.39 399.701 1311.7 399.872C1311.02 399.957 1310.68 400 1310.68 400H1282.26ZM1276.38 404.864C1278.34 404.608 1279.4 403.84 1279.58 402.56C1279.83 401.28 1279.96 399.744 1279.96 397.952V380.544L1286.36 379.52V397.952C1286.36 400.256 1285.93 401.92 1285.08 402.944C1284.23 404.053 1283.2 404.736 1282.01 404.992C1280.81 405.333 1279.66 405.419 1278.55 405.248C1277.53 405.077 1276.8 404.949 1276.38 404.864ZM1311.16 501.576C1310.65 503.453 1309.45 505.075 1307.58 506.44C1305.78 507.72 1303.65 508.616 1301.18 509.128C1298.79 509.64 1296.44 509.64 1294.14 509.128C1291.92 508.616 1290.04 507.549 1288.5 505.928C1286.97 504.221 1286.2 501.832 1286.2 498.76V409.416L1299 406.6V498.76C1299 500.296 1299.47 501.405 1300.41 502.088C1301.35 502.685 1302.5 503.027 1303.86 503.112C1305.23 503.112 1306.59 502.941 1307.96 502.6C1309.33 502.259 1310.39 501.917 1311.16 501.576ZM1378.31 509V496.2H1400.07V509H1378.31ZM1371.91 503.88V409.416L1384.71 406.6V509L1371.91 503.88ZM1355.4 534.6C1350.19 534.6 1345.97 533.661 1342.73 531.784C1339.48 529.907 1337.01 527.56 1335.3 524.744C1333.6 521.928 1332.44 519.069 1331.85 516.168C1331.25 513.352 1330.95 510.963 1330.95 509C1330.95 505.245 1331.72 501.661 1333.25 498.248C1334.88 494.835 1336.92 491.805 1339.4 489.16C1341.87 486.429 1344.43 484.211 1347.08 482.504C1347.25 484.125 1347.16 485.661 1346.82 487.112C1346.48 488.563 1345.71 490.099 1344.52 491.72C1345.46 492.147 1346.22 492.787 1346.82 493.64C1347.5 494.408 1347.97 495.261 1348.23 496.2C1348.49 497.139 1348.49 498.12 1348.23 499.144C1347.04 498.461 1345.97 497.992 1345.03 497.736C1344.18 497.395 1343.15 497.309 1341.96 497.48C1339.57 497.736 1337.78 499.101 1336.58 501.576C1335.39 504.051 1334.79 506.525 1334.79 509C1334.79 512.243 1335.39 515.229 1336.58 517.96C1337.86 520.776 1340 523.037 1342.98 524.744C1345.97 526.451 1350.11 527.304 1355.4 527.304C1359.75 527.304 1363.12 526.323 1365.51 524.36C1367.9 522.483 1369.56 519.752 1370.5 516.168C1371.44 512.669 1371.91 508.573 1371.91 503.88V473.416L1384.71 470.6V509C1384.71 513.779 1383.6 518.088 1381.38 521.928C1379.16 525.853 1375.88 528.925 1371.53 531.144C1367.26 533.448 1361.88 534.6 1355.4 534.6ZM1426.29 428.528C1422.88 428.528 1419.94 427.291 1417.46 424.816C1414.99 422.256 1413.75 419.227 1413.75 415.728C1413.75 412.229 1414.99 409.243 1417.46 406.768C1419.94 404.208 1422.88 402.928 1426.29 402.928C1429.79 402.928 1432.78 404.208 1435.25 406.768C1437.81 409.243 1439.09 412.229 1439.09 415.728C1439.09 419.227 1437.81 422.256 1435.25 424.816C1432.78 427.291 1429.79 428.528 1426.29 428.528ZM1426.42 424.048C1428.81 424.048 1430.82 423.237 1432.44 421.616C1434.06 419.995 1434.87 417.989 1434.87 415.6C1434.87 413.211 1434.06 411.205 1432.44 409.584C1430.9 407.963 1428.9 407.109 1426.42 407.024C1424.03 406.939 1422.03 407.749 1420.41 409.456C1418.78 411.163 1417.97 413.211 1417.97 415.6C1417.97 417.989 1418.78 419.995 1420.41 421.616C1422.03 423.237 1424.03 424.048 1426.42 424.048ZM1409.66 515.4V489.8H1411.45V515.4H1409.66ZM1394.94 509V496.2H1420.54L1428.86 509H1394.94ZM1442.3 515.4V489.8H1447.93V515.4H1442.3ZM1428.86 534.6C1425.36 534.6 1422.16 533.747 1419.26 532.04C1416.36 530.333 1414.01 527.987 1412.22 525C1410.51 522.099 1409.66 518.899 1409.66 515.4C1409.66 511.816 1410.51 508.573 1412.22 505.672C1414.01 502.771 1416.36 500.467 1419.26 498.76C1422.16 497.053 1425.36 496.2 1428.86 496.2C1432.36 496.2 1435.56 497.053 1438.46 498.76C1441.36 500.467 1443.67 502.771 1445.37 505.672C1447.08 508.573 1447.93 511.816 1447.93 515.4C1447.93 518.899 1447.08 522.099 1445.37 525C1443.67 527.987 1441.36 530.333 1438.46 532.04C1435.56 533.747 1432.36 534.6 1428.86 534.6ZM1428.86 521.8C1430.65 521.8 1432.15 521.16 1433.34 519.88C1434.62 518.685 1435.26 517.192 1435.26 515.4C1435.26 513.608 1434.62 512.072 1433.34 510.792C1432.15 509.597 1430.65 509 1428.86 509C1427.07 509 1425.53 509.597 1424.25 510.792C1423.06 512.072 1422.46 513.608 1422.46 515.4C1422.46 517.192 1423.06 518.685 1424.25 519.88C1425.53 521.16 1427.07 521.8 1428.86 521.8ZM1447.93 489.8L1428.86 470.6C1429.97 470.6 1431.42 470.6 1433.21 470.6C1435 470.6 1436.84 470.472 1438.72 470.216C1440.68 469.875 1442.47 469.277 1444.09 468.424C1445.8 467.571 1447.08 466.333 1447.93 464.712V489.8ZM1428.86 509C1425.36 509 1422.16 508.147 1419.26 506.44C1416.36 504.733 1414.01 502.429 1412.22 499.528C1410.51 496.541 1409.66 493.299 1409.66 489.8C1409.66 486.216 1410.51 482.973 1412.22 480.072C1414.01 477.171 1416.36 474.867 1419.26 473.16C1422.16 471.453 1425.36 470.6 1428.86 470.6C1432.36 470.6 1435.56 471.453 1438.46 473.16C1441.36 474.867 1443.67 477.171 1445.37 480.072C1447.08 482.973 1447.93 486.216 1447.93 489.8C1447.93 493.299 1447.08 496.541 1445.37 499.528C1443.67 502.429 1441.36 504.733 1438.46 506.44C1435.56 508.147 1432.36 509 1428.86 509ZM1428.86 496.2C1430.65 496.2 1432.15 495.603 1433.34 494.408C1434.62 493.128 1435.26 491.592 1435.26 489.8C1435.26 488.008 1434.62 486.515 1433.34 485.32C1432.15 484.04 1430.65 483.4 1428.86 483.4C1427.07 483.4 1425.53 484.04 1424.25 485.32C1423.06 486.515 1422.46 488.008 1422.46 489.8C1422.46 491.592 1423.06 493.128 1424.25 494.408C1425.53 495.603 1427.07 496.2 1428.86 496.2ZM1449.3 359.808L1447.12 355.968L1475.93 339.328L1478.1 343.168L1449.3 359.808ZM1454.72 398.848V394.624C1454.72 393.003 1454.76 391.723 1454.85 390.784C1454.93 389.76 1455.15 388.608 1455.49 387.328C1456.17 384.768 1457.32 382.677 1458.94 381.056C1460.56 379.349 1463.04 378.496 1466.37 378.496C1467.56 378.496 1468.97 378.88 1470.59 379.648C1472.3 380.331 1473.58 381.653 1474.43 383.616C1473.92 383.36 1472.81 383.019 1471.1 382.592C1469.4 382.165 1467.95 382.123 1466.75 382.464C1465.39 382.805 1464.4 383.445 1463.81 384.384C1463.21 385.237 1462.87 386.091 1462.78 386.944C1462.7 387.712 1462.66 388.267 1462.66 388.608C1462.66 390.315 1463.08 391.509 1463.94 392.192C1464.87 392.875 1465.94 393.301 1467.14 393.472C1468.42 393.557 1469.57 393.6 1470.59 393.6H1473.92L1474.05 398.848H1454.72ZM1445.38 400L1449.22 393.6H1479.94L1476.1 400H1445.38ZM1479.29 501.576C1478.77 503.453 1477.58 505.075 1475.7 506.44C1473.91 507.72 1471.78 508.616 1469.3 509.128C1466.91 509.64 1464.57 509.64 1462.26 509.128C1460.04 508.616 1458.17 507.549 1456.63 505.928C1455.09 504.221 1454.33 501.832 1454.33 498.76V409.416L1467.12 406.6V498.76C1467.12 500.296 1467.59 501.405 1468.53 502.088C1469.47 502.685 1470.62 503.027 1471.99 503.112C1473.35 503.112 1474.72 502.941 1476.09 502.6C1477.45 502.259 1478.52 501.917 1479.29 501.576Z" fill="#4E6E81"/>
<path d="M910.788 418.056C910.788 413.704 911.3 409.629 912.324 405.832C913.391 402.035 914.735 398.664 916.356 395.72C918.02 392.733 919.748 390.28 921.54 388.36L928.9 391.752C926.426 394.611 924.335 398.237 922.628 402.632C920.964 407.027 920.132 412.168 920.132 418.056C920.132 423.944 920.964 429.085 922.628 433.48C924.335 437.832 926.426 441.437 928.9 444.296L921.54 447.752C919.748 445.789 918.02 443.315 916.356 440.328C914.735 437.384 913.391 434.035 912.324 430.28C911.3 426.483 910.788 422.408 910.788 418.056ZM950.289 462.6C946.62 461.405 943.377 459.272 940.561 456.2C937.831 453.128 936.465 449.245 936.465 444.552C936.465 441.395 936.892 438.707 937.745 436.488C938.599 434.184 939.708 432.093 941.073 430.216C938.513 427.827 936.764 425.139 935.825 422.152C934.972 419.165 934.801 416.136 935.313 413.064C935.911 409.992 937.063 407.176 938.769 404.616C940.561 402.056 942.823 400.008 945.553 398.472C948.284 396.851 951.399 396.04 954.897 396.04C957.799 396.04 960.273 396.765 962.321 398.216C964.455 399.581 966.119 401.245 967.313 403.208C968.593 405.085 969.319 406.792 969.489 408.328C967.356 406.707 965.308 405.597 963.345 405C961.383 404.317 959.591 404.147 957.969 404.488C956.519 404.659 955.196 405.427 954.001 406.792C952.892 408.072 952.337 409.437 952.337 410.888C952.337 412.339 952.807 413.704 953.745 414.984C954.684 416.179 956.049 417.16 957.841 417.928C959.719 418.696 962.065 419.08 964.881 419.08H978.065L970.385 437H962.321C961.297 437 960.06 437.299 958.609 437.896C957.159 438.579 955.879 439.56 954.769 440.84C953.745 442.205 953.233 443.997 953.233 446.216C953.233 448.947 953.959 451.123 955.409 452.744C956.86 454.451 958.695 455.645 960.913 456.328C963.217 457.096 965.649 457.523 968.209 457.608C970.855 457.693 973.372 457.565 975.761 457.224C978.236 456.883 980.284 456.413 981.905 455.816C980.455 457.608 978.449 459.101 975.889 460.296C973.329 461.491 970.513 462.387 967.441 462.984C964.455 463.581 961.468 463.837 958.481 463.752C955.495 463.752 952.764 463.368 950.289 462.6ZM1003.18 418.056C1003.18 422.408 1002.64 426.483 1001.58 430.28C1000.55 434.077 999.229 437.448 997.607 440.392C995.986 443.379 994.258 445.832 992.423 447.752L985.063 444.36C987.581 441.459 989.671 437.832 991.335 433.48C992.999 429.085 993.831 423.944 993.831 418.056C993.831 414.131 993.447 410.547 992.679 407.304C991.911 404.019 990.866 401.096 989.543 398.536C988.221 395.933 986.727 393.693 985.063 391.816L992.423 388.36C994.258 390.28 995.986 392.733 997.607 395.72C999.229 398.707 1000.55 402.099 1001.58 405.896C1002.64 409.651 1003.18 413.704 1003.18 418.056Z" fill="#4E6E81"/>
<rect x="1147" y="70" width="206.545" height="206.545" rx="40" fill="#4E6E81"/>
<rect x="1188.31" y="111.309" width="123.927" height="123.927" fill="#F9DBBB"/>
<rect x="1162.7" y="173.327" width="123.927" height="123.927" transform="rotate(-45 1162.7 173.327)" fill="#F9DBBB"/>
</svg>
