<?xml version="1.0" standalone="no"?>
<!DOCTYPE svg PUBLIC "-//W3C//DTD SVG 20010904//EN"
 "http://www.w3.org/TR/2001/REC-SVG-20010904/DTD/svg10.dtd">
<svg version="1.0" xmlns="http://www.w3.org/2000/svg"
 width="1280.000000pt" height="1280.000000pt" viewBox="0 0 1280.000000 1280.000000"
 preserveAspectRatio="xMidYMid meet">
<g transform="translate(0.000000,1280.000000) scale(0.100000,-0.100000)"
fill="#4E6E81" stroke="none">
<path d="M6376 12653 c-74 -459 -278 -1688 -286 -1728 -6 -27 -12 -68 -15 -90
-2 -22 -60 -382 -130 -800 -109 -661 -186 -1127 -319 -1938 -18 -108 -36 -200
-40 -204 -8 -8 79 -70 -1206 852 -591 424 -1091 782 -1110 795 l-35 25 25 -35
c13 -19 390 -545 837 -1169 447 -623 813 -1137 813 -1142 0 -12 14 -9 -565
-104 -948 -156 -1175 -193 -1760 -290 -319 -53 -598 -98 -620 -101 -22 -2 -89
-13 -150 -24 -106 -19 -1631 -271 -1727 -285 -27 -4 -48 -11 -48 -14 0 -4 48
-16 108 -25 458 -74 1687 -278 1727 -286 28 -6 68 -12 90 -15 22 -2 328 -52
680 -110 676 -112 1013 -167 1760 -290 514 -84 505 -82 505 -94 0 -5 -366
-519 -813 -1142 -447 -624 -824 -1150 -837 -1169 l-25 -35 35 25 c19 13 545
390 1169 837 623 447 1137 813 1142 813 12 0 10 9 94 -505 123 -747 178 -1084
290 -1760 58 -352 108 -658 110 -680 3 -22 9 -62 15 -90 8 -40 212 -1269 286
-1728 9 -59 20 -107 24 -107 4 0 15 48 24 108 74 458 278 1687 286 1727 6 28
12 68 15 90 2 22 56 355 120 740 63 385 152 921 196 1190 44 270 100 606 123
747 23 142 46 261 49 265 9 8 -79 70 1207 -852 591 -424 1091 -782 1110 -795
l35 -25 -25 35 c-13 19 -390 545 -837 1169 -447 623 -813 1137 -813 1142 0 12
-9 10 505 94 747 123 1084 178 1760 290 352 58 658 108 680 110 22 3 63 9 90
15 40 8 1269 212 1728 286 59 9 107 20 107 24 0 4 -48 15 -107 24 -459 74
-1688 278 -1728 286 -27 6 -68 12 -90 15 -22 2 -328 52 -680 110 -676 112
-1013 167 -1760 290 -514 84 -505 82 -505 94 0 5 366 519 813 1142 447 624
824 1150 837 1169 l25 35 -35 -25 c-19 -13 -545 -390 -1169 -837 -623 -447
-1137 -813 -1142 -813 -12 0 -10 -9 -94 505 -123 747 -178 1084 -290 1760 -58
352 -108 658 -110 680 -3 22 -9 63 -15 90 -8 40 -212 1269 -286 1728 -9 59
-20 107 -24 107 -4 0 -15 -48 -24 -107z"/>
</g>
</svg>
